<?xml version="1.0" encoding="UTF-8"?>
<svg width="199px" height="26px" viewBox="0 0 199 26" version="1.1" xmlns="http://www.w3.org/2000/svg" xmlns:xlink="http://www.w3.org/1999/xlink">
    <!-- Generator: Sketch 59.1 (86144) - https://sketch.com -->
    <title>ac_logo-reversed</title>
    <desc>Created with Sketch.</desc>
    <g id="Footer-options---final---Aug1---for-AirTRFX" stroke="none" stroke-width="1" fill="none" fill-rule="evenodd">
        <g id="AC-Web-dHD-Footer-CAEN" transform="translate(-621.000000, -910.000000)">
            <g id="dHD-Footer-EN" transform="translate(0.000000, 724.000000)">
                <g id="ac_logo-reversed" transform="translate(621.000000, 186.000000)">
                    <g>
                        <path d="M13.68125,18.1213953 C13.68125,17.2643023 14.054375,17.1418605 14.925,17.6316279 C16.4175,18.4887209 17.91,19.2233721 17.91,19.2233721 C17.91,18.7336047 18.4075,18.3662791 19.278125,18.6111628 C20.14875,18.8560465 21.019375,18.9784884 21.019375,18.9784884 C21.019375,18.9784884 20.521875,17.8765116 20.273125,17.3867442 C19.9,16.5296512 20.273125,16.0398837 20.64625,15.9174419 C20.64625,15.9174419 20.14875,15.5501163 19.775625,15.3052326 C19.029375,14.8154651 19.15375,14.2032558 19.9,13.9583721 C20.895,13.4686047 22.263125,12.9788372 22.263125,12.9788372 C21.89,12.7339535 21.3925,12.1217442 21.89,11.2646512 C22.3875,10.53 23.258125,9.42802326 23.258125,9.42802326 C23.258125,9.42802326 21.89,9.42802326 20.895,9.42802326 C20.024375,9.42802326 19.775625,8.69337209 19.775625,8.20360465 C19.775625,8.20360465 18.4075,9.18313953 17.4125,9.79534884 C16.541875,10.4075581 15.795625,9.79534884 15.92,8.81581395 C16.16875,7.34651163 16.293125,5.63232558 16.293125,5.63232558 C15.795625,6.12209302 14.925,5.99965116 14.4275,5.265 C13.805625,4.0405814 13.18375,2.57127907 13.18375,2.57127907 C13.18375,2.57127907 12.561875,4.0405814 11.94,5.265 C11.566875,5.99965116 10.69625,6.12209302 10.19875,5.75476744 C10.19875,5.75476744 10.323125,7.46895349 10.571875,8.93825581 C10.69625,9.79534884 9.95,10.4075581 9.079375,9.79534884 C8.084375,9.18313953 6.591875,8.20360465 6.591875,8.20360465 C6.591875,8.69337209 6.343125,9.3055814 5.4725,9.42802326 C4.4775,9.42802326 3.109375,9.42802326 3.109375,9.42802326 C3.109375,9.42802326 3.98,10.53 4.4775,11.2646512 C4.975,11.9993023 4.4775,12.7339535 4.104375,12.9788372 C4.104375,12.9788372 5.348125,13.5910465 6.4675,13.9583721 C7.21375,14.3256977 7.4625,14.8154651 6.591875,15.3052326 C6.343125,15.5501163 5.72125,15.9174419 5.72125,15.9174419 C6.21875,16.0398837 6.591875,16.5296512 6.21875,17.3867442 C5.97,17.8765116 5.4725,18.9784884 5.4725,18.9784884 C5.4725,18.9784884 6.343125,18.7336047 7.21375,18.6111628 C8.084375,18.3662791 8.4575,18.8560465 8.581875,19.2233721 C8.581875,19.2233721 10.074375,18.3662791 11.566875,17.6316279 C12.313125,17.1418605 12.810625,17.3867442 12.810625,18.1213953 L12.810625,20.202907 C12.810625,21.4273256 12.561875,22.6517442 12.18875,23.3863953 C6.591875,22.774186 1.865625,18.3662791 1.865625,12.4890698 C1.865625,6.4894186 6.965,1.59174419 13.308125,1.59174419 C19.65125,1.59174419 24.750625,6.4894186 24.750625,12.4890698 C24.750625,18.1213953 20.273125,22.774186 14.551875,23.3863953 L14.551875,24.8556977 C21.268125,24.2434884 26.491875,18.9784884 26.491875,12.4890698 C26.491875,5.50988372 20.521875,0 13.18375,0 C5.97,0 0,5.50988372 0,12.3666279 C0,18.3662791 4.601875,23.3863953 10.69625,24.4883721 C11.69125,24.7332558 12.313125,24.8556977 12.935,25.467907 C13.556875,24.2434884 13.68125,21.7946512 13.68125,20.4477907 L13.68125,18.1213953 Z" id="Rondelle" fill="#F01428" fill-rule="nonzero"></path>
                        <path d="M98.131875,5.38744186 C99.873125,5.38744186 101.614375,5.50988372 103.48,5.8772093 L103.48,8.08116279 C101.49,7.46895349 99.624375,7.22406977 98.25625,7.22406977 C96.515,7.22406977 95.27125,7.71383721 94.27625,8.57093023 C93.405625,9.42802326 92.908125,10.7748837 92.908125,12.3666279 C92.908125,13.9583721 93.405625,15.1827907 94.400625,16.1623256 C95.395625,17.0194186 96.76375,17.509186 98.505,17.509186 C100.121875,17.509186 101.863125,17.1418605 103.48,16.5296512 L103.48,18.4887209 C101.9875,19.1009302 100.121875,19.345814 97.883125,19.345814 C95.27125,19.345814 93.156875,18.7336047 91.664375,17.509186 C90.171875,16.2847674 89.425625,14.5705814 89.425625,12.3666279 C89.425625,10.1626744 90.171875,8.32604651 91.664375,7.22406977 C93.156875,5.99965116 95.27125,5.38744186 98.131875,5.38744186 Z M73.63,5.75476744 C77.1125,5.75476744 78.729375,7.22406977 78.85375,9.06069767 C78.85375,9.9177907 78.729375,10.7748837 78.1075,11.387093 C77.485625,11.9993023 77.236875,12.244186 76.1175,12.8563953 L81.0925,19.1009302 L77.485625,19.1009302 L73.008125,13.4686047 L70.023125,13.4686047 L70.023125,18.9784884 L67.038125,18.9784884 L67.038125,5.75476744 L73.63,5.75476744 Z M192.656875,5.75476744 L198.5025,18.9784884 L194.895625,18.9784884 L193.27875,15.4276744 L187.06,15.4276744 L185.443125,18.9784884 L183.204375,18.9784884 L189.05,5.75476744 L192.656875,5.75476744 Z M155.7175,5.75476744 L161.563125,18.9784884 L157.95625,18.9784884 L156.339375,15.4276744 L150.120625,15.4276744 L148.50375,18.9784884 L146.265,18.9784884 L152.110625,5.75476744 L155.7175,5.75476744 Z M130.718125,5.75476744 L139.175625,15.1827907 L139.175625,5.75476744 L141.7875,5.75476744 L141.7875,18.9784884 L138.429375,18.9784884 L129.723125,9.06069767 L129.723125,18.9784884 L127.11125,18.9784884 L127.11125,5.75476744 L130.718125,5.75476744 Z M116.788125,5.75476744 L122.63375,18.9784884 L119.026875,18.9784884 L117.41,15.4276744 L111.19125,15.4276744 L109.574375,18.9784884 L107.335625,18.9784884 L113.18125,5.75476744 L116.788125,5.75476744 Z M60.073125,5.75476744 L60.073125,18.9784884 L56.96375,18.9784884 L56.96375,5.75476744 L60.073125,5.75476744 Z M47.01375,5.75476744 L52.859375,18.9784884 L49.2525,18.9784884 L47.635625,15.4276744 L41.416875,15.4276744 L39.8,18.9784884 L37.56125,18.9784884 L43.406875,5.75476744 L47.01375,5.75476744 Z M172.38375,5.75476744 C174.746875,5.75476744 176.488125,6.36697674 177.731875,7.34651163 C178.975625,8.44848837 179.5975,10.0402326 179.5975,11.9993023 C179.5975,14.2032558 178.975625,15.9174419 177.6075,17.0194186 C176.239375,18.2438372 174.498125,18.8560465 172.135,18.8560465 L165.91625,18.8560465 L165.91625,5.75476744 L172.38375,5.75476744 Z M171.015625,7.46895349 L169.15,7.46895349 L169.15,17.1418605 L171.38875,17.1418605 C173.005625,17.1418605 174.249375,16.7745349 175.12,15.9174419 C175.990625,15.0603488 176.36375,13.9583721 176.36375,12.244186 C176.36375,11.0197674 175.990625,9.9177907 175.36875,9.06069767 C174.87125,8.44848837 174.37375,8.08116279 173.751875,7.83627907 C173.13,7.59139535 172.259375,7.46895349 171.015625,7.46895349 Z M190.045,8.44848837 L187.80625,13.7134884 L192.408125,13.7134884 L190.045,8.44848837 Z M153.105625,8.44848837 L150.866875,13.7134884 L155.46875,13.7134884 L153.105625,8.44848837 Z M114.425,8.44848837 L112.061875,13.7134884 L116.66375,13.7134884 L114.425,8.44848837 Z M44.401875,8.44848837 L42.163125,13.7134884 L46.765,13.7134884 L44.401875,8.44848837 Z M71.764375,7.46895349 L70.023125,7.46895349 L70.023125,11.7544186 L71.39125,11.7544186 C74.998125,11.7544186 75.744375,11.1422093 75.744375,9.42802326 C75.744375,7.71383721 74.1275,7.46895349 71.764375,7.46895349 Z" id="Wordmark" fill="#FFFFFF" fill-rule="nonzero"></path>
                    </g>
                </g>
            </g>
        </g>
    </g>
</svg>